# xmcd
#
# Track frame offsets:
#  150
#  9534
#  31145
#  43498
#  69204
#  82930
#  104833
#  124000
#  143708
#  160807
#  184042
#  206517
#  225249
#  244447
#  257886
#  278526
#  296925
#  317661
#  335277
#
# Disc length: 4755 seconds
#
# Revision: 0
# Processed by: cddbd v1.5.1PL2 Copyright (c) Steve Scherf et al.
# Submitted via: Collectorz.com_Music_Collector 6.11
#
DISCID=0e129113
DTITLE=Snoop Dogg - Without Hoes, Life Would Be Fucked Up!
DYEAR=2006
DGENRE=Snoop
TTITLE0=Pimpin' On A Hoe
TTITLE1=No More Games Ft. Prince Ital Joe and Nate Dogg
TTITLE2=Straight Ballin'
TTITLE3=Dat Whoopty Woop Ft. Soopafly
TTITLE4=Where The Hoes At Ft. Daz Dillinger and Soopafly
TTITLE5=Kickin' It Rough 
TTITLE6=Don't Give A Fuck Ft. Sanyika Shakur
TTITLE7=Puppy Love Ft. Kurupt, Daz Dillinger and Nate Dogg
TTITLE8=Cali-California
TTITLE9=Smokin' On Information Ft. Layzie Bone and Joe Little
TTITLE10=Story To Tell Ft. Kurupt
TTITLE11=It'$ Dat Gan$ta $hit Ft. Daz Dillinger and Crystar
TTITLE12=Xchange Ft. Typhoon
TTITLE13=Whoop Your A$$ 
TTITLE14=New York New York Ft. Tha Dogg Pound
TTITLE15=Ride Ft. Eastwood
TTITLE16=Whatchu Talkin' About Ft. Daz W and Young Wee
TTITLE17=Mo' Chedda Ft. K-Dee and Glock
TTITLE18=I Got Dat Fire Ft. Daz Dillinger, E-White and Uncle Reo
EXTD=
EXTT0=
EXTT1=
EXTT2=
EXTT3=
EXTT4=
EXTT5=
EXTT6=
EXTT7=
EXTT8=
EXTT9=
EXTT10=
EXTT11=
EXTT12=
EXTT13=
EXTT14=
EXTT15=
EXTT16=
EXTT17=
EXTT18=
PLAYORDER=
